<svg width="110" height="98" viewBox="0 0 110 98" fill="none" xmlns="http://www.w3.org/2000/svg">
<path d="M108.5 76.1735C107.976 93.2332 82.6407 96.6955 75.7111 97.5082H28.6301C20.6813 97.5082 0.180889 94.6719 0.503771 76.1735C0.503778 64.5918 1.67438 57.5898 22.2676 44.2889C17.8416 33.3753 33.5038 -0.100963 47.2032 0.508228C50.788 0.667642 51.5978 14.5695 49.2096 26.9237C50.0156 26.0512 50.8586 25.1925 51.7369 24.3607C60.8044 15.7738 82.0038 5.00823 89.5181 9.09516C91.5038 11.0082 92.0038 19.5082 81.9619 31.0394C71.3831 41.5344 58.5375 44.3967 58.5375 44.3967C58.5375 44.3967 109.504 43.5082 108.5 76.1735Z" fill="#DA1C5C"/>
<path d="M37.38 44.3967C37.38 44.3967 41.6943 35.0583 49.2096 26.9237M49.2096 26.9237C51.5978 14.5695 50.788 0.667642 47.2032 0.508228C33.5038 -0.100963 17.8416 33.3753 22.2676 44.2889C1.67438 57.5898 0.503778 64.5918 0.503771 76.1735C0.180889 94.6719 20.6813 97.5082 28.6301 97.5082H75.7111C82.6407 96.6955 107.976 93.2332 108.5 76.1735C109.504 43.5082 58.5375 44.3967 58.5375 44.3967C58.5375 44.3967 71.3831 41.5344 81.9619 31.0394C92.0038 19.5082 91.5038 11.0082 89.5181 9.09516C82.0038 5.00823 60.8044 15.7738 51.7369 24.3607C50.8586 25.1925 50.0156 26.0512 49.2096 26.9237Z" stroke="#DA1C5C"/>
</svg>
